<svg xmlns="http://www.w3.org/2000/svg" xmlns:xlink="http://www.w3.org/1999/xlink" id="Standard_product_icon__x28_1:1_x29_" width="192" height="192" x="0" y="0" enable-background="new 0 0 192 192" version="1.1" viewBox="0 0 192 192" xml:space="preserve"><symbol id="material_x5F_product_x5F_standard_x5F_icon_x5F_keylines_00000077318920148093339210000006245950728745084294_" viewBox="-96 -96 192 192"><g opacity=".4"><defs><path id="SVGID_1_" d="M-96,96V-96H96V96H-96z" opacity=".4"/></defs><clipPath id="SVGID_00000071517564283228984050000017848131202901217410_"><use overflow="visible" xlink:href="#SVGID_1_"/></clipPath><g clip-path="url(#SVGID_00000071517564283228984050000017848131202901217410_)"><g><path d="M95.75,95.75v-191.5h-191.5v191.5H95.75 M96,96H-96V-96H96V96L96,96z"/></g><circle cx="0" cy="0" r="64" fill="none" stroke="#000" stroke-miterlimit="10" stroke-width=".25"/></g><circle cx="0" cy="0" r="88" fill="none" stroke="#000" stroke-miterlimit="10" stroke-width=".25" clip-path="url(#SVGID_00000071517564283228984050000017848131202901217410_)"/><path fill="none" stroke="#000" stroke-miterlimit="10" stroke-width=".25" d="M64,76H-64c-6.6,0-12-5.4-12-12V-64c0-6.6,5.4-12,12-12H64c6.6,0,12,5.4,12,12V64C76,70.6,70.6,76,64,76z" clip-path="url(#SVGID_00000071517564283228984050000017848131202901217410_)"/><path fill="none" stroke="#000" stroke-miterlimit="10" stroke-width=".25" d="M52,88H-52c-6.6,0-12-5.4-12-12V-76c0-6.6,5.4-12,12-12H52c6.6,0,12,5.4,12,12V76C64,82.6,58.6,88,52,88z" clip-path="url(#SVGID_00000071517564283228984050000017848131202901217410_)"/><path fill="none" stroke="#000" stroke-miterlimit="10" stroke-width=".25" d="M76,64H-76c-6.6,0-12-5.4-12-12V-52c0-6.6,5.4-12,12-12H76c6.6,0,12,5.4,12,12V52C88,58.6,82.6,64,76,64z" clip-path="url(#SVGID_00000071517564283228984050000017848131202901217410_)"/></g></symbol><rect id="bounding_box_1_" width="192" height="192" fill="none" display="none"/><g id="art_layer"><g><path fill="#F9AB00" d="M96,181.92L96,181.92c6.63,0,12-5.37,12-12v-104H84v104C84,176.55,89.37,181.92,96,181.92z"/><g><path fill="#5BB974" d="M143.81,103.87C130.87,90.94,111.54,88.32,96,96l51.37,51.37c2.12,2.12,5.77,1.28,6.67-1.57 C158.56,131.49,155.15,115.22,143.81,103.87z"/></g><g><path fill="#129EAF" d="M48.19,103.87C61.13,90.94,80.46,88.32,96,96l-51.37,51.37c-2.12,2.12-5.77,1.28-6.67-1.57 C33.44,131.49,36.85,115.22,48.19,103.87z"/></g><g><path fill="#AF5CF7" d="M140,64c-20.44,0-37.79,13.4-44,32h81.24c3.33,0,5.55-3.52,4.04-6.49C173.56,74.36,157.98,64,140,64z"/></g><g><path fill="#FF8BCB" d="M104.49,42.26C90.03,56.72,87.24,78.45,96,96l57.45-57.45c2.36-2.36,1.44-6.42-1.73-7.45 C135.54,25.85,117.2,29.55,104.49,42.26z"/></g><g><path fill="#FA7B17" d="M87.51,42.26C101.97,56.72,104.76,78.45,96,96L38.55,38.55c-2.36-2.36-1.44-6.42,1.73-7.45 C56.46,25.85,74.8,29.55,87.51,42.26z"/></g><g><g><path fill="#4285F4" d="M52,64c20.44,0,37.79,13.4,44,32H14.76c-3.33,0-5.55-3.52-4.04-6.49C18.44,74.36,34.02,64,52,64z"/></g></g></g></g><g id="keylines" display="none"><use id="material_x5F_product_x5F_standard_x5F_icon_x5F_keylines" width="192" height="192" x="-96" y="-96" display="inline" overflow="visible" transform="matrix(1 0 0 -1 96 96)" xlink:href="#material_x5F_product_x5F_standard_x5F_icon_x5F_keylines_00000077318920148093339210000006245950728745084294_"/></g></svg>